<svg width="761" height="850" viewBox="0 0 761 850" fill="none" xmlns="http://www.w3.org/2000/svg">
<g clip-path="url(#clip0_0_1634)">
<path d="M56.6691 -6.86646e-05L-4.90604 61.5751" stroke="white" stroke-width="4.77738"/>
<path d="M56.6693 -6.86646e-05L118.244 61.5751" stroke="white" stroke-width="4.77738"/>
<path d="M118.244 -6.86646e-05L179.819 61.5751" stroke="white" stroke-width="4.77738"/>
<path d="M241.394 -6.86646e-05L179.819 61.5751" stroke="white" stroke-width="4.77738"/>
<path d="M241.395 -6.86646e-05L302.97 61.5751" stroke="white" stroke-width="4.77738"/>
<path d="M302.97 -6.86646e-05L364.545 61.5751" stroke="white" stroke-width="4.77738"/>
<path d="M364.545 -6.86646e-05L426.12 61.5751" stroke="white" stroke-width="4.77738"/>
<path d="M487.695 -6.86646e-05L426.12 61.5751" stroke="white" stroke-width="4.77738"/>
<path d="M549.27 -6.86646e-05L487.695 61.5751" stroke="white" stroke-width="4.77738"/>
<path d="M610.846 -6.86646e-05L549.27 61.5751" stroke="white" stroke-width="4.77738"/>
<path d="M610.845 -6.86646e-05L672.42 61.5751" stroke="white" stroke-width="4.77738"/>
<path d="M672.42 0.000144958L733.995 61.5753" stroke="white" stroke-width="4.77738"/>
<path d="M733.995 0.000144958L795.571 61.5753" stroke="white" stroke-width="4.77738"/>
<path opacity="0.93" d="M-4.90604 61.5748L56.6691 123.15" stroke="white" stroke-width="4.77738"/>
<path opacity="0.93" d="M56.6693 61.5748L118.244 123.15" stroke="white" stroke-width="4.77738"/>
<path opacity="0.93" d="M179.819 61.5748L118.244 123.15" stroke="white" stroke-width="4.77738"/>
<path opacity="0.93" d="M179.819 61.5748L241.394 123.15" stroke="white" stroke-width="4.77738"/>
<path opacity="0.93" d="M241.395 61.5748L302.97 123.15" stroke="white" stroke-width="4.77738"/>
<path opacity="0.93" d="M364.545 61.5748L302.97 123.15" stroke="white" stroke-width="4.77738"/>
<path opacity="0.93" d="M426.12 61.5748L364.545 123.15" stroke="white" stroke-width="4.77738"/>
<path opacity="0.93" d="M487.695 61.5748L426.12 123.15" stroke="white" stroke-width="4.77738"/>
<path opacity="0.93" d="M549.27 61.5748L487.695 123.15" stroke="white" stroke-width="4.77738"/>
<path opacity="0.93" d="M610.846 61.5748L549.27 123.15" stroke="white" stroke-width="4.77738"/>
<path opacity="0.93" d="M610.845 61.5748L672.421 123.15" stroke="white" stroke-width="4.77738"/>
<path opacity="0.93" d="M672.42 61.5751L733.996 123.15" stroke="white" stroke-width="4.77738"/>
<path opacity="0.93" d="M733.996 61.5751L795.571 123.15" stroke="white" stroke-width="4.77738"/>
<path opacity="0.86" d="M-4.90604 123.15L56.6691 184.725" stroke="white" stroke-width="4.77738"/>
<path opacity="0.86" d="M118.244 123.15L56.6693 184.725" stroke="white" stroke-width="4.77738"/>
<path opacity="0.86" d="M118.244 123.15L179.819 184.725" stroke="white" stroke-width="4.77738"/>
<path opacity="0.86" d="M241.394 123.15L179.819 184.725" stroke="white" stroke-width="4.77738"/>
<path opacity="0.86" d="M241.395 123.15L302.97 184.725" stroke="white" stroke-width="4.77738"/>
<path opacity="0.86" d="M364.545 123.15L302.97 184.725" stroke="white" stroke-width="4.77738"/>
<path opacity="0.86" d="M364.545 123.15L426.12 184.725" stroke="white" stroke-width="4.77738"/>
<path opacity="0.86" d="M426.12 123.15L487.695 184.725" stroke="white" stroke-width="4.77738"/>
<path opacity="0.86" d="M487.695 123.15L549.27 184.725" stroke="white" stroke-width="4.77738"/>
<path opacity="0.86" d="M610.846 123.15L549.27 184.725" stroke="white" stroke-width="4.77738"/>
<path opacity="0.86" d="M672.421 123.15L610.845 184.725" stroke="white" stroke-width="4.77738"/>
<path opacity="0.86" d="M672.42 123.15L733.996 184.726" stroke="white" stroke-width="4.77738"/>
<path opacity="0.86" d="M795.571 123.15L733.996 184.726" stroke="white" stroke-width="4.77738"/>
<path opacity="0.79" d="M-4.90604 184.725L56.6691 246.3" stroke="white" stroke-width="4.77738"/>
<path opacity="0.79" d="M56.6693 184.725L118.244 246.3" stroke="white" stroke-width="4.77738"/>
<path opacity="0.79" d="M179.819 184.725L118.244 246.3" stroke="white" stroke-width="4.77738"/>
<path opacity="0.79" d="M241.394 184.725L179.819 246.3" stroke="white" stroke-width="4.77738"/>
<path opacity="0.79" d="M241.395 184.725L302.97 246.3" stroke="white" stroke-width="4.77738"/>
<path opacity="0.79" d="M302.97 184.725L364.545 246.3" stroke="white" stroke-width="4.77738"/>
<path opacity="0.79" d="M364.545 184.725L426.12 246.3" stroke="white" stroke-width="4.77738"/>
<path opacity="0.79" d="M487.695 184.725L426.12 246.3" stroke="white" stroke-width="4.77738"/>
<path opacity="0.79" d="M487.695 184.725L549.27 246.3" stroke="white" stroke-width="4.77738"/>
<path opacity="0.79" d="M610.846 184.725L549.27 246.3" stroke="white" stroke-width="4.77738"/>
<path opacity="0.79" d="M672.421 184.725L610.845 246.3" stroke="white" stroke-width="4.77738"/>
<path opacity="0.79" d="M672.42 184.725L733.996 246.3" stroke="white" stroke-width="4.77738"/>
<path opacity="0.79" d="M795.571 184.725L733.996 246.3" stroke="white" stroke-width="4.77738"/>
<path opacity="0.72" d="M-4.90604 246.301L56.6691 307.876" stroke="white" stroke-width="4.77738"/>
<path opacity="0.72" d="M56.6693 246.301L118.244 307.876" stroke="white" stroke-width="4.77738"/>
<path opacity="0.72" d="M118.244 246.301L179.819 307.876" stroke="white" stroke-width="4.77738"/>
<path opacity="0.72" d="M179.819 246.301L241.394 307.876" stroke="white" stroke-width="4.77738"/>
<path opacity="0.72" d="M302.97 246.301L241.395 307.876" stroke="white" stroke-width="4.77738"/>
<path opacity="0.72" d="M302.97 246.301L364.545 307.876" stroke="white" stroke-width="4.77738"/>
<path opacity="0.72" d="M364.545 246.301L426.12 307.876" stroke="white" stroke-width="4.77738"/>
<path opacity="0.72" d="M426.12 246.301L487.695 307.876" stroke="white" stroke-width="4.77738"/>
<path opacity="0.72" d="M487.695 246.301L549.27 307.876" stroke="white" stroke-width="4.77738"/>
<path opacity="0.72" d="M610.846 246.301L549.27 307.876" stroke="white" stroke-width="4.77738"/>
<path opacity="0.72" d="M672.421 246.301L610.845 307.876" stroke="white" stroke-width="4.77738"/>
<path opacity="0.72" d="M672.42 246.301L733.996 307.876" stroke="white" stroke-width="4.77738"/>
<path opacity="0.72" d="M733.996 246.301L795.571 307.876" stroke="white" stroke-width="4.77738"/>
<path opacity="0.66" d="M56.6691 307.876L-4.90604 369.451" stroke="white" stroke-width="4.77738"/>
<path opacity="0.66" d="M56.6693 307.876L118.244 369.451" stroke="white" stroke-width="4.77738"/>
<path opacity="0.66" d="M179.819 307.876L118.244 369.451" stroke="white" stroke-width="4.77738"/>
<path opacity="0.66" d="M179.819 307.876L241.394 369.451" stroke="white" stroke-width="4.77738"/>
<path opacity="0.66" d="M241.395 307.876L302.97 369.451" stroke="white" stroke-width="4.77738"/>
<path opacity="0.66" d="M302.97 307.876L364.545 369.451" stroke="white" stroke-width="4.77738"/>
<path opacity="0.66" d="M364.545 307.876L426.12 369.451" stroke="white" stroke-width="4.77738"/>
<path opacity="0.66" d="M426.12 307.876L487.695 369.451" stroke="white" stroke-width="4.77738"/>
<path opacity="0.66" d="M549.27 307.876L487.695 369.451" stroke="white" stroke-width="4.77738"/>
<path opacity="0.66" d="M549.27 307.876L610.846 369.451" stroke="white" stroke-width="4.77738"/>
<path opacity="0.66" d="M672.421 307.876L610.845 369.451" stroke="white" stroke-width="4.77738"/>
<path opacity="0.66" d="M733.996 307.876L672.42 369.451" stroke="white" stroke-width="4.77738"/>
<path opacity="0.66" d="M795.571 307.876L733.996 369.451" stroke="white" stroke-width="4.77738"/>
<path opacity="0.59" d="M56.6691 369.451L-4.90604 431.026" stroke="white" stroke-width="4.77738"/>
<path opacity="0.59" d="M118.244 369.451L56.6693 431.026" stroke="white" stroke-width="4.77738"/>
<path opacity="0.59" d="M118.244 369.451L179.819 431.026" stroke="white" stroke-width="4.77738"/>
<path opacity="0.59" d="M241.394 369.451L179.819 431.026" stroke="white" stroke-width="4.77738"/>
<path opacity="0.59" d="M241.395 369.451L302.97 431.026" stroke="white" stroke-width="4.77738"/>
<path opacity="0.59" d="M302.97 369.451L364.545 431.026" stroke="white" stroke-width="4.77738"/>
<path opacity="0.59" d="M364.545 369.451L426.12 431.026" stroke="white" stroke-width="4.77738"/>
<path opacity="0.59" d="M426.12 369.451L487.695 431.026" stroke="white" stroke-width="4.77738"/>
<path opacity="0.59" d="M487.695 369.451L549.27 431.026" stroke="white" stroke-width="4.77738"/>
<path opacity="0.59" d="M549.27 369.451L610.846 431.026" stroke="white" stroke-width="4.77738"/>
<path opacity="0.59" d="M610.845 369.451L672.421 431.026" stroke="white" stroke-width="4.77738"/>
<path opacity="0.59" d="M672.42 369.451L733.996 431.026" stroke="white" stroke-width="4.77738"/>
<path opacity="0.59" d="M795.571 369.451L733.996 431.026" stroke="white" stroke-width="4.77738"/>
<path opacity="0.52" d="M-4.90604 431.026L56.6691 492.601" stroke="white" stroke-width="4.77738"/>
<path opacity="0.52" d="M56.6693 431.026L118.244 492.601" stroke="white" stroke-width="4.77738"/>
<path opacity="0.52" d="M179.819 431.026L118.244 492.601" stroke="white" stroke-width="4.77738"/>
<path opacity="0.52" d="M241.394 431.026L179.819 492.601" stroke="white" stroke-width="4.77738"/>
<path opacity="0.52" d="M241.395 431.026L302.97 492.601" stroke="white" stroke-width="4.77738"/>
<path opacity="0.52" d="M302.97 431.026L364.545 492.601" stroke="white" stroke-width="4.77738"/>
<path opacity="0.52" d="M364.545 431.026L426.12 492.601" stroke="white" stroke-width="4.77738"/>
<path opacity="0.52" d="M487.695 431.026L426.12 492.601" stroke="white" stroke-width="4.77738"/>
<path opacity="0.52" d="M549.27 431.026L487.695 492.601" stroke="white" stroke-width="4.77738"/>
<path opacity="0.52" d="M549.27 431.026L610.846 492.601" stroke="white" stroke-width="4.77738"/>
<path opacity="0.52" d="M610.845 431.026L672.421 492.601" stroke="white" stroke-width="4.77738"/>
<path opacity="0.52" d="M672.42 431.026L733.996 492.602" stroke="white" stroke-width="4.77738"/>
<path opacity="0.52" d="M733.996 431.026L795.571 492.602" stroke="white" stroke-width="4.77738"/>
<path opacity="0.45" d="M56.6691 492.601L-4.90604 554.176" stroke="white" stroke-width="4.77738"/>
<path opacity="0.45" d="M118.244 492.601L56.6693 554.176" stroke="white" stroke-width="4.77738"/>
<path opacity="0.45" d="M118.244 492.601L179.819 554.176" stroke="white" stroke-width="4.77738"/>
<path opacity="0.45" d="M179.819 492.601L241.394 554.176" stroke="white" stroke-width="4.77738"/>
<path opacity="0.45" d="M241.395 492.601L302.97 554.176" stroke="white" stroke-width="4.77738"/>
<path opacity="0.45" d="M364.545 492.601L302.97 554.176" stroke="white" stroke-width="4.77738"/>
<path opacity="0.45" d="M364.545 492.601L426.12 554.176" stroke="white" stroke-width="4.77738"/>
<path opacity="0.45" d="M426.12 492.601L487.695 554.176" stroke="white" stroke-width="4.77738"/>
<path opacity="0.45" d="M549.27 492.601L487.695 554.176" stroke="white" stroke-width="4.77738"/>
<path opacity="0.45" d="M549.27 492.601L610.846 554.176" stroke="white" stroke-width="4.77738"/>
<path opacity="0.45" d="M672.421 492.601L610.845 554.176" stroke="white" stroke-width="4.77738"/>
<path opacity="0.45" d="M672.42 492.601L733.996 554.176" stroke="white" stroke-width="4.77738"/>
<path opacity="0.45" d="M795.571 492.601L733.996 554.176" stroke="white" stroke-width="4.77738"/>
<path opacity="0.38" d="M-4.90604 554.176L56.6691 615.751" stroke="white" stroke-width="4.77738"/>
<path opacity="0.38" d="M56.6693 554.176L118.244 615.751" stroke="white" stroke-width="4.77738"/>
<path opacity="0.38" d="M179.819 554.176L118.244 615.751" stroke="white" stroke-width="4.77738"/>
<path opacity="0.38" d="M179.819 554.176L241.394 615.751" stroke="white" stroke-width="4.77738"/>
<path opacity="0.38" d="M241.395 554.176L302.97 615.751" stroke="white" stroke-width="4.77738"/>
<path opacity="0.38" d="M364.545 554.176L302.97 615.751" stroke="white" stroke-width="4.77738"/>
<path opacity="0.38" d="M364.545 554.176L426.12 615.751" stroke="white" stroke-width="4.77738"/>
<path opacity="0.38" d="M426.12 554.176L487.695 615.751" stroke="white" stroke-width="4.77738"/>
<path opacity="0.38" d="M487.695 554.176L549.27 615.751" stroke="white" stroke-width="4.77738"/>
<path opacity="0.38" d="M549.27 554.176L610.846 615.751" stroke="white" stroke-width="4.77738"/>
<path opacity="0.38" d="M672.421 554.176L610.845 615.751" stroke="white" stroke-width="4.77738"/>
<path opacity="0.38" d="M672.42 554.176L733.996 615.751" stroke="white" stroke-width="4.77738"/>
<path opacity="0.38" d="M733.996 554.176L795.571 615.751" stroke="white" stroke-width="4.77738"/>
<path opacity="0.31" d="M-4.90604 615.752L56.6691 677.327" stroke="white" stroke-width="4.77738"/>
<path opacity="0.31" d="M56.6693 615.752L118.244 677.327" stroke="white" stroke-width="4.77738"/>
<path opacity="0.31" d="M118.244 615.752L179.819 677.327" stroke="white" stroke-width="4.77738"/>
<path opacity="0.31" d="M179.819 615.752L241.394 677.327" stroke="white" stroke-width="4.77738"/>
<path opacity="0.31" d="M302.97 615.752L241.395 677.327" stroke="white" stroke-width="4.77738"/>
<path opacity="0.31" d="M302.97 615.752L364.545 677.327" stroke="white" stroke-width="4.77738"/>
<path opacity="0.31" d="M364.545 615.752L426.12 677.327" stroke="white" stroke-width="4.77738"/>
<path opacity="0.31" d="M426.12 615.752L487.695 677.327" stroke="white" stroke-width="4.77738"/>
<path opacity="0.31" d="M549.27 615.752L487.695 677.327" stroke="white" stroke-width="4.77738"/>
<path opacity="0.31" d="M549.27 615.752L610.846 677.327" stroke="white" stroke-width="4.77738"/>
<path opacity="0.31" d="M610.845 615.752L672.421 677.327" stroke="white" stroke-width="4.77738"/>
<path opacity="0.31" d="M672.42 615.752L733.996 677.327" stroke="white" stroke-width="4.77738"/>
<path opacity="0.31" d="M795.571 615.752L733.996 677.327" stroke="white" stroke-width="4.77738"/>
<path opacity="0.24" d="M-4.90604 677.327L56.6691 738.902" stroke="white" stroke-width="4.77738"/>
<path opacity="0.24" d="M56.6693 677.327L118.244 738.902" stroke="white" stroke-width="4.77738"/>
<path opacity="0.24" d="M118.244 677.327L179.819 738.902" stroke="white" stroke-width="4.77738"/>
<path opacity="0.24" d="M241.394 677.327L179.819 738.902" stroke="white" stroke-width="4.77738"/>
<path opacity="0.24" d="M241.395 677.327L302.97 738.902" stroke="white" stroke-width="4.77738"/>
<path opacity="0.24" d="M364.545 677.327L302.97 738.902" stroke="white" stroke-width="4.77738"/>
<path opacity="0.24" d="M364.545 677.327L426.12 738.902" stroke="white" stroke-width="4.77738"/>
<path opacity="0.24" d="M487.695 677.327L426.12 738.902" stroke="white" stroke-width="4.77738"/>
<path opacity="0.24" d="M549.27 677.327L487.695 738.902" stroke="white" stroke-width="4.77738"/>
<path opacity="0.24" d="M610.846 677.327L549.27 738.902" stroke="white" stroke-width="4.77738"/>
<path opacity="0.24" d="M610.845 677.327L672.421 738.902" stroke="white" stroke-width="4.77738"/>
<path opacity="0.24" d="M672.42 677.327L733.996 738.902" stroke="white" stroke-width="4.77738"/>
<path opacity="0.24" d="M795.571 677.327L733.996 738.902" stroke="white" stroke-width="4.77738"/>
<path opacity="0.17" d="M-4.90604 738.902L56.6691 800.477" stroke="white" stroke-width="4.77738"/>
<path opacity="0.17" d="M118.244 738.902L56.6693 800.477" stroke="white" stroke-width="4.77738"/>
<path opacity="0.17" d="M118.244 738.902L179.819 800.477" stroke="white" stroke-width="4.77738"/>
<path opacity="0.17" d="M241.394 738.902L179.819 800.477" stroke="white" stroke-width="4.77738"/>
<path opacity="0.17" d="M241.395 738.902L302.97 800.477" stroke="white" stroke-width="4.77738"/>
<path opacity="0.17" d="M302.97 738.902L364.545 800.477" stroke="white" stroke-width="4.77738"/>
<path opacity="0.17" d="M364.545 738.902L426.12 800.477" stroke="white" stroke-width="4.77738"/>
<path opacity="0.17" d="M426.12 738.902L487.695 800.477" stroke="white" stroke-width="4.77738"/>
<path opacity="0.17" d="M487.695 738.902L549.27 800.477" stroke="white" stroke-width="4.77738"/>
<path opacity="0.17" d="M549.27 738.902L610.846 800.477" stroke="white" stroke-width="4.77738"/>
<path opacity="0.17" d="M610.845 738.902L672.421 800.477" stroke="white" stroke-width="4.77738"/>
<path opacity="0.17" d="M672.42 738.902L733.996 800.477" stroke="white" stroke-width="4.77738"/>
<path opacity="0.17" d="M795.571 738.902L733.996 800.477" stroke="white" stroke-width="4.77738"/>
<path opacity="0.1" d="M56.6691 800.477L-4.90604 862.052" stroke="white" stroke-width="4.77738"/>
<path opacity="0.1" d="M118.244 800.477L56.6693 862.052" stroke="white" stroke-width="4.77738"/>
<path opacity="0.1" d="M118.244 800.477L179.819 862.052" stroke="white" stroke-width="4.77738"/>
<path opacity="0.1" d="M241.394 800.477L179.819 862.052" stroke="white" stroke-width="4.77738"/>
<path opacity="0.1" d="M241.395 800.477L302.97 862.052" stroke="white" stroke-width="4.77738"/>
<path opacity="0.1" d="M302.97 800.477L364.545 862.052" stroke="white" stroke-width="4.77738"/>
<path opacity="0.1" d="M426.12 800.477L364.545 862.052" stroke="white" stroke-width="4.77738"/>
<path opacity="0.1" d="M426.12 800.477L487.695 862.052" stroke="white" stroke-width="4.77738"/>
<path opacity="0.1" d="M487.695 800.477L549.27 862.052" stroke="white" stroke-width="4.77738"/>
<path opacity="0.1" d="M549.27 800.477L610.846 862.052" stroke="white" stroke-width="4.77738"/>
<path opacity="0.1" d="M610.845 800.477L672.421 862.052" stroke="white" stroke-width="4.77738"/>
<path opacity="0.1" d="M672.42 800.477L733.996 862.052" stroke="white" stroke-width="4.77738"/>
<path opacity="0.1" d="M733.996 800.477L795.571 862.052" stroke="white" stroke-width="4.77738"/>
</g>
<defs>
<clipPath id="clip0_0_1634">
<rect width="1509.65" height="849.312" fill="white" transform="translate(-374.355)"/>
</clipPath>
</defs>
</svg>
