<svg width="153" height="42" viewBox="0 0 153 42" fill="none" xmlns="http://www.w3.org/2000/svg">
<g clip-path="url(#clip0_0_1990)">
<path d="M33.3833 35.4819C29.7668 36.0829 25.6951 37.0094 21.3198 38.4116C18.0574 39.4633 15.0984 40.6151 12.4682 41.792C8.32054 32.2267 4.14763 22.6363 0 13.0459L8.59874 2.6793L10.1415 4.60739L4.83047 9.71558L16.7928 1.27705L17.4504 3.13002L7.56183 9.71558L26.2767 0L27.1872 2.35378L10.976 10.4167L33.4592 1.47737L33.2569 5.50884L5.03279 14.7737L12.5946 37.0344C15.0984 36.5336 17.855 36.1079 20.7887 35.8074C25.4421 35.3317 29.6656 35.3066 33.3833 35.4819Z" fill="white"/>
<path d="M18.361 28.5207C17.5264 28.1952 16.8689 27.6944 16.3884 27.0434C15.9079 26.3923 15.6297 25.591 15.6044 24.6896H19.2968C19.3474 25.2154 19.5244 25.6161 19.8532 25.8915C20.1566 26.167 20.5613 26.2922 21.0671 26.2922C21.5729 26.2922 21.9776 26.167 22.281 25.9416C22.5845 25.7162 22.7363 25.3907 22.7363 24.965C22.7363 24.6145 22.6098 24.339 22.3822 24.1137C22.1546 23.8883 21.8511 23.688 21.5223 23.5628C21.1683 23.4125 20.6877 23.2373 20.0555 23.062C19.145 22.7865 18.3863 22.5111 17.8046 22.2106C17.223 21.9352 16.7171 21.5095 16.3125 20.9586C15.8826 20.4077 15.6802 19.7066 15.6802 18.8052C15.6802 17.5031 16.1608 16.4764 17.1218 15.7252C18.0828 14.974 19.3221 14.6234 20.8648 14.6234C22.4328 14.6234 23.6973 14.999 24.6583 15.7252C25.6194 16.4764 26.1252 17.5031 26.2011 18.8302H22.4075C22.3822 18.3795 22.2052 18.0289 21.9017 17.7535C21.5982 17.5031 21.1936 17.3528 20.713 17.3528C20.2831 17.3528 19.9543 17.453 19.7014 17.6783C19.4485 17.9037 19.3221 18.2042 19.3221 18.6299C19.3221 19.0806 19.5497 19.4312 19.9796 19.6816C20.4095 19.932 21.0924 20.2074 22.0028 20.5079C22.9133 20.8084 23.672 21.1088 24.2284 21.3843C24.8101 21.6597 25.2906 22.0604 25.7205 22.6113C26.1505 23.1371 26.3528 23.8382 26.3528 24.6645C26.3528 25.4658 26.1505 26.192 25.7458 26.843C25.3412 27.4941 24.7342 28.0199 23.9502 28.3955C23.1662 28.7711 22.2557 28.9715 21.1683 28.9715C20.1314 29.0215 19.1956 28.8463 18.361 28.5207Z" fill="white"/>
<path d="M46.2311 18.8301C47.0657 19.6815 47.4704 20.8334 47.4704 22.3358V28.8713H44.0309V22.8115C44.0309 22.0854 43.8286 21.5345 43.4492 21.1338C43.0698 20.7332 42.5387 20.5329 41.8559 20.5329C41.1731 20.5329 40.642 20.7332 40.2626 21.1338C39.8833 21.5345 39.6809 22.0854 39.6809 22.8115V28.8713H36.2414V22.8115C36.2414 22.0854 36.0391 21.5345 35.6598 21.1338C35.2804 20.7332 34.7493 20.5329 34.0665 20.5329C33.3836 20.5329 32.8525 20.7332 32.4732 21.1338C32.0938 21.5345 31.8915 22.0854 31.8915 22.8115V28.8713H28.4267V17.7033H31.8915V19.1056C32.2455 18.6298 32.7008 18.2793 33.2572 18.0038C33.8136 17.7284 34.4711 17.6032 35.1792 17.6032C36.0391 17.6032 36.7978 17.7785 37.4554 18.1541C38.1129 18.5046 38.644 19.0305 39.0234 19.7066C39.4027 19.0805 39.9591 18.5797 40.6167 18.2041C41.2995 17.8285 42.0329 17.6282 42.8169 17.6282C44.2838 17.5781 45.3966 18.0038 46.2311 18.8301Z" fill="white"/>
<path d="M49.8729 20.2327C50.3028 19.3563 50.9098 18.7052 51.6685 18.2294C52.4272 17.7537 53.2618 17.5283 54.1976 17.5283C54.9816 17.5283 55.6897 17.6786 56.2967 18.0041C56.9036 18.3296 57.3589 18.7553 57.6876 19.2561V17.6786H61.1524V28.8465H57.6624V27.294C57.3336 27.8198 56.8531 28.2455 56.2461 28.546C55.6391 28.8715 54.9563 29.0218 54.147 29.0218C53.2365 29.0218 52.4019 28.7964 51.6432 28.3206C50.8845 27.8449 50.3028 27.1688 49.8476 26.2924C49.4177 25.416 49.1901 24.4144 49.1901 23.2625C49.2154 22.1107 49.4177 21.1091 49.8729 20.2327ZM56.9542 21.2593C56.4737 20.7585 55.892 20.5081 55.2092 20.5081C54.5263 20.5081 53.9447 20.7585 53.4641 21.2343C52.9836 21.71 52.756 22.3861 52.756 23.2375C52.756 24.0888 52.9836 24.7649 53.4641 25.2657C53.9447 25.7665 54.5263 26.0169 55.2092 26.0169C55.892 26.0169 56.4737 25.7665 56.9542 25.2657C57.4347 24.7649 57.6624 24.0888 57.6624 23.2375C57.6624 22.4362 57.4094 21.7601 56.9542 21.2593Z" fill="white"/>
<path d="M68.613 18.1041C69.22 17.7535 69.9028 17.5782 70.6363 17.5782V21.2091H69.6752C68.8154 21.2091 68.1578 21.3843 67.7279 21.7599C67.2979 22.1355 67.0703 22.7615 67.0703 23.688V28.8713H63.6055V17.7034H67.0703V19.5564C67.5003 18.9304 68.0061 18.4546 68.613 18.1041Z" fill="white"/>
<path d="M78.5776 25.9668V28.8715H76.8073C75.5428 28.8715 74.5818 28.571 73.8736 27.97C73.1655 27.3691 72.8114 26.3675 72.8114 24.9902V20.5331H71.4457V17.7036H72.8114V14.9742H76.2762V17.7036H78.5523V20.5331H76.2762V25.0153C76.2762 25.3408 76.3521 25.5912 76.5291 25.7415C76.6809 25.8917 76.959 25.9668 77.3384 25.9668H78.5776Z" fill="white"/>
<path d="M87.1509 28.5207C86.3163 28.1952 85.6587 27.6944 85.1782 27.0434C84.6977 26.3923 84.4195 25.591 84.3942 24.6896H88.0866C88.1372 25.2154 88.3142 25.6161 88.643 25.8915C88.9465 26.167 89.3511 26.2922 89.8569 26.2922C90.3628 26.2922 90.7674 26.167 91.0709 25.9416C91.3744 25.7162 91.5261 25.3907 91.5261 24.965C91.5261 24.6145 91.3997 24.339 91.1721 24.1137C90.9444 23.8883 90.641 23.688 90.3122 23.5628C89.9581 23.4125 89.4776 23.2373 88.8453 23.062C87.9349 22.7865 87.1762 22.5111 86.5945 22.2106C86.0128 21.9352 85.507 21.5095 85.1024 20.9586C84.6724 20.4077 84.4701 19.7066 84.4701 18.8052C84.4701 17.5031 84.9506 16.4764 85.9117 15.7252C86.8727 14.974 88.1119 14.6234 89.6546 14.6234C91.2226 14.6234 92.4872 14.999 93.4482 15.7252C94.4092 16.4764 94.915 17.5031 94.9909 18.8302H91.2479C91.2226 18.3795 91.0456 18.0289 90.7421 17.7535C90.4386 17.5031 90.034 17.3528 89.5535 17.3528C89.1235 17.3528 88.7948 17.453 88.5419 17.6783C88.2889 17.9037 88.1625 18.2042 88.1625 18.6299C88.1625 19.0806 88.3901 19.4312 88.82 19.6816C89.25 19.932 89.9328 20.2074 90.8433 20.5079C91.7537 20.8084 92.5124 21.1088 93.0688 21.3843C93.6505 21.6597 94.131 22.0604 94.561 22.6113C94.9909 23.1371 95.1932 23.8382 95.1932 24.6645C95.1932 25.4658 94.9909 26.192 94.5863 26.843C94.1816 27.4941 93.5746 28.0199 92.7906 28.3955C92.0066 28.7711 91.0962 28.9715 90.0087 28.9715C88.8959 29.0215 87.9602 28.8463 87.1509 28.5207Z" fill="white"/>
<path d="M97.267 20.2327C97.7475 19.3563 98.4051 18.7052 99.265 18.2294C100.125 17.7537 101.111 17.5283 102.199 17.5283C103.615 17.5283 104.804 17.9039 105.739 18.6301C106.7 19.3563 107.307 20.4079 107.611 21.7351H103.944C103.64 20.8837 103.033 20.458 102.148 20.458C101.516 20.458 101.01 20.7084 100.631 21.1842C100.251 21.6599 100.074 22.3611 100.074 23.2876C100.074 24.189 100.251 24.8901 100.631 25.3909C101.01 25.8667 101.516 26.1171 102.148 26.1171C103.033 26.1171 103.64 25.6914 103.944 24.84H107.636C107.333 26.1421 106.7 27.1688 105.765 27.92C104.804 28.6712 103.615 29.0468 102.224 29.0468C101.111 29.0468 100.125 28.8214 99.2902 28.3457C98.4304 27.8699 97.7728 27.2189 97.2923 26.3425C96.8118 25.4661 96.5842 24.4644 96.5842 23.2876C96.5589 22.1107 96.7865 21.1091 97.267 20.2327Z" fill="white"/>
<path d="M119.523 18.8554C120.307 19.7067 120.686 20.8586 120.686 22.361V28.8965H117.246V22.8117C117.246 22.0605 117.044 21.4846 116.665 21.0589C116.285 20.6332 115.754 20.4329 115.097 20.4329C114.439 20.4329 113.908 20.6332 113.529 21.0589C113.149 21.4846 112.947 22.0605 112.947 22.8117V28.8714H109.482V14.0476H112.947V19.2059C113.301 18.7051 113.782 18.3295 114.389 18.029C114.996 17.7285 115.678 17.5783 116.437 17.5783C117.702 17.5783 118.739 18.004 119.523 18.8554Z" fill="white"/>
<path d="M125.264 28.3206C124.379 27.8449 123.696 27.1938 123.19 26.3174C122.684 25.441 122.431 24.4394 122.431 23.2625C122.431 22.1107 122.684 21.1091 123.19 20.2327C123.696 19.3563 124.404 18.6802 125.289 18.2294C126.174 17.7537 127.186 17.5283 128.273 17.5283C129.386 17.5283 130.372 17.7537 131.258 18.2294C132.143 18.7052 132.851 19.3563 133.357 20.2327C133.862 21.1091 134.115 22.1107 134.115 23.2625C134.115 24.4144 133.862 25.416 133.331 26.2924C132.8 27.1688 132.092 27.8449 131.207 28.2956C130.322 28.7714 129.31 28.9967 128.197 28.9967C127.135 29.0218 126.149 28.7964 125.264 28.3206ZM129.942 25.3409C130.398 24.8651 130.651 24.164 130.651 23.2876C130.651 22.3861 130.423 21.71 129.968 21.2343C129.512 20.7585 128.956 20.5081 128.299 20.5081C127.616 20.5081 127.059 20.7335 126.629 21.2092C126.174 21.685 125.972 22.3861 125.972 23.2876C125.972 24.189 126.199 24.8651 126.629 25.3409C127.059 25.8166 127.616 26.067 128.273 26.067C128.905 26.067 129.462 25.8166 129.942 25.3409Z" fill="white"/>
<path d="M138.162 28.3206C137.277 27.8449 136.594 27.1938 136.088 26.3174C135.582 25.441 135.329 24.4394 135.329 23.2625C135.329 22.1107 135.582 21.1091 136.088 20.2327C136.594 19.3563 137.302 18.6802 138.187 18.2294C139.072 17.7537 140.084 17.5283 141.171 17.5283C142.284 17.5283 143.271 17.7537 144.156 18.2294C145.041 18.7052 145.749 19.3563 146.255 20.2327C146.761 21.1091 147.014 22.1107 147.014 23.2625C147.014 24.4144 146.761 25.416 146.23 26.2924C145.698 27.1688 144.99 27.8449 144.105 28.2956C143.22 28.7714 142.208 28.9967 141.096 28.9967C140.033 29.0218 139.047 28.7964 138.162 28.3206ZM142.815 25.3409C143.271 24.8651 143.523 24.164 143.523 23.2876C143.523 22.3861 143.296 21.71 142.841 21.2343C142.385 20.7585 141.829 20.5081 141.171 20.5081C140.489 20.5081 139.932 20.7335 139.502 21.2092C139.047 21.685 138.845 22.3861 138.845 23.2876C138.845 24.189 139.072 24.8651 139.502 25.3409C139.932 25.8166 140.489 26.067 141.146 26.067C141.804 26.067 142.36 25.8166 142.815 25.3409Z" fill="white"/>
<path d="M152.35 14.0476V28.8714H148.885V14.0476H152.35Z" fill="white"/>
<path d="M38.8972 36.1079C38.6949 36.0078 38.5178 35.8826 38.4167 35.7323C38.2902 35.557 38.2396 35.3818 38.2396 35.1564H38.9225C38.9478 35.3317 38.9983 35.4569 39.1248 35.557C39.2512 35.6572 39.403 35.7073 39.6053 35.7073C39.8329 35.7073 39.9847 35.6572 40.1111 35.557C40.2376 35.4569 40.2881 35.3317 40.2881 35.1564C40.2881 35.0312 40.2629 34.931 40.187 34.8559C40.1111 34.7808 40.01 34.7057 39.9088 34.6806C39.8076 34.6306 39.6306 34.5805 39.4536 34.5304C39.2007 34.4553 38.9983 34.4052 38.8466 34.3301C38.6949 34.255 38.5684 34.1548 38.4419 34.0046C38.3155 33.8543 38.2649 33.679 38.2649 33.4286C38.2649 33.2033 38.3155 33.028 38.4419 32.8527C38.5431 32.6774 38.6949 32.5522 38.8972 32.4771C39.0995 32.402 39.3271 32.3519 39.58 32.3519C39.9594 32.3519 40.2629 32.4521 40.4905 32.6273C40.7181 32.8026 40.8698 33.053 40.8951 33.3785H40.2123C40.2123 33.2283 40.1364 33.1281 40.01 33.028C39.8835 32.9278 39.7318 32.8777 39.5294 32.8777C39.3524 32.8777 39.2007 32.9278 39.0995 33.0029C38.973 33.1031 38.9225 33.2283 38.9225 33.4036C38.9225 33.5288 38.9478 33.6039 39.0236 33.679C39.0995 33.7541 39.1754 33.8042 39.3018 33.8543C39.4283 33.9044 39.5547 33.9545 39.757 34.0046C40.01 34.0797 40.2123 34.1548 40.3893 34.2049C40.5411 34.28 40.6928 34.3802 40.794 34.5304C40.8951 34.6806 40.971 34.8559 40.971 35.1063C40.971 35.3066 40.9204 35.4819 40.8192 35.6572C40.7181 35.8325 40.5663 35.9577 40.364 36.0578C40.1617 36.158 39.9341 36.2081 39.6559 36.2081C39.3271 36.2331 39.0995 36.183 38.8972 36.1079Z" fill="white"/>
<path d="M46.4338 32.4023V32.9031H45.4222V36.1833H44.79V32.9031H43.7531V32.4023H46.4338Z" fill="white"/>
<path d="M49.9998 32.4023V34.8312C49.9998 35.1066 50.0757 35.332 50.2274 35.4822C50.3792 35.6324 50.5815 35.7076 50.8597 35.7076C51.1379 35.7076 51.3402 35.6324 51.492 35.4822C51.6437 35.332 51.7196 35.1316 51.7196 34.8312V32.4023H52.3518V34.8061C52.3518 35.1066 52.276 35.3821 52.1495 35.5824C52.0231 35.8077 51.8207 35.958 51.5931 36.0581C51.3655 36.1583 51.1126 36.2084 50.8344 36.2084C50.5562 36.2084 50.3033 36.1583 50.0757 36.0581C49.8481 35.958 49.6711 35.7827 49.5446 35.5824C49.4182 35.357 49.3423 35.1066 49.3423 34.8061V32.4023H49.9998Z" fill="white"/>
<path d="M57.8396 32.6272C58.1431 32.7775 58.396 33.0028 58.5477 33.3033C58.7247 33.6038 58.8006 33.9293 58.8006 34.3049C58.8006 34.6805 58.7247 35.0311 58.5477 35.3065C58.3707 35.582 58.1431 35.8073 57.8396 35.9576C57.5361 36.1078 57.182 36.183 56.7774 36.183H55.5381V32.3768H56.7774C57.1567 32.4019 57.5361 32.477 57.8396 32.6272ZM57.789 35.3316C58.0166 35.0812 58.1431 34.7557 58.1431 34.3049C58.1431 33.8542 58.0166 33.5287 57.789 33.2783C57.5614 33.0279 57.2073 32.9027 56.7521 32.9027H56.1451V35.6821H56.7774C57.2073 35.6821 57.5614 35.5569 57.789 35.3316Z" fill="white"/>
<path d="M62.3668 32.9028V34.0046H63.6819V34.5054H62.3668V35.6572H63.8589V36.158H61.7345V32.3519H63.8589V32.8527H62.3668V32.9028Z" fill="white"/>
<path d="M70.0803 36.2084H69.448L67.5513 33.3788V36.2084H66.919V32.4023H67.5513L69.448 35.2318V32.4023H70.0803V36.2084Z" fill="white"/>
<path d="M75.6949 32.4023V32.9031H74.6833V36.1833H74.0511V32.9031H73.0142V32.4023H75.6949Z" fill="white"/>
<path d="M79.2101 36.1079C79.0078 36.0078 78.8307 35.8826 78.7296 35.7323C78.6031 35.557 78.5526 35.3818 78.5526 35.1564H79.2354C79.2607 35.3317 79.3113 35.4569 79.4377 35.557C79.5642 35.6572 79.7159 35.7073 79.9182 35.7073C80.1458 35.7073 80.2976 35.6572 80.424 35.557C80.5505 35.4569 80.6011 35.3317 80.6011 35.1564C80.6011 35.0312 80.5758 34.931 80.4999 34.8559C80.424 34.7808 80.3229 34.7057 80.2217 34.6806C80.1206 34.6306 79.9435 34.5805 79.7665 34.5304C79.5136 34.4553 79.3113 34.4052 79.1595 34.3301C79.0078 34.255 78.8813 34.1548 78.7549 34.0046C78.6284 33.8543 78.5778 33.679 78.5778 33.4286C78.5778 33.2033 78.6284 33.028 78.7549 32.8527C78.856 32.6774 79.0078 32.5522 79.2101 32.4771C79.4124 32.402 79.64 32.3519 79.8929 32.3519C80.2723 32.3519 80.5758 32.4521 80.8034 32.6273C81.031 32.8026 81.1828 33.053 81.208 33.3785H80.5252C80.5252 33.2283 80.4493 33.1281 80.3229 33.028C80.1964 32.9278 80.0447 32.8777 79.8424 32.8777C79.6653 32.8777 79.5136 32.9278 79.4124 33.0029C79.286 33.1031 79.2354 33.2283 79.2354 33.4036C79.2354 33.5288 79.2607 33.6039 79.3366 33.679C79.4124 33.7541 79.4883 33.8042 79.6147 33.8543C79.7412 33.9044 79.8677 33.9545 80.07 34.0046C80.3229 34.0797 80.5252 34.1548 80.7022 34.2049C80.854 34.28 81.0057 34.3802 81.1069 34.5304C81.208 34.6806 81.2839 34.8559 81.2839 35.1063C81.2839 35.3066 81.2333 35.4819 81.1322 35.6572C81.031 35.8325 80.8793 35.9577 80.6769 36.0578C80.4746 36.158 80.247 36.2081 79.9688 36.2081C79.6653 36.2331 79.4377 36.183 79.2101 36.1079Z" fill="white"/>
<path d="M88.618 36.1079C88.4157 36.0078 88.2386 35.8826 88.1375 35.7323C88.011 35.557 87.9604 35.3818 87.9604 35.1564H88.6433C88.6686 35.3317 88.7192 35.4569 88.8456 35.557C88.9721 35.6572 89.1238 35.7073 89.3261 35.7073C89.5538 35.7073 89.7055 35.6572 89.8319 35.557C89.9584 35.4569 90.009 35.3317 90.009 35.1564C90.009 35.0312 89.9837 34.931 89.9078 34.8559C89.8319 34.7808 89.7308 34.7057 89.6296 34.6806C89.5285 34.6306 89.3514 34.5805 89.1744 34.5304C88.9215 34.4553 88.7192 34.4052 88.5674 34.3301C88.4157 34.255 88.2892 34.1548 88.1628 34.0046C88.0616 33.8543 87.9857 33.679 87.9857 33.4286C87.9857 33.2033 88.0363 33.028 88.1628 32.8527C88.2639 32.6774 88.4157 32.5522 88.618 32.4771C88.8203 32.402 89.0479 32.3519 89.3008 32.3519C89.6802 32.3519 89.9837 32.4521 90.2113 32.6273C90.4389 32.8026 90.5907 33.053 90.6159 33.3785H89.9331C89.9331 33.2283 89.8572 33.1281 89.7308 33.028C89.6043 32.9278 89.4526 32.8777 89.2503 32.8777C89.0732 32.8777 88.9215 32.9278 88.8203 33.0029C88.6939 33.1031 88.6433 33.2283 88.6433 33.4036C88.6433 33.5288 88.6686 33.6039 88.7445 33.679C88.8203 33.7541 88.8962 33.8042 89.0226 33.8543C89.1238 33.9044 89.2756 33.9545 89.4779 34.0046C89.7308 34.0797 89.9331 34.1548 90.1101 34.2049C90.2619 34.28 90.4136 34.3802 90.5148 34.5304C90.6159 34.6806 90.6918 34.8559 90.6918 35.1063C90.6918 35.3066 90.6412 35.4819 90.5401 35.6572C90.4389 35.8325 90.2872 35.9577 90.0848 36.0578C89.8825 36.158 89.6549 36.2081 89.3767 36.2081C89.0479 36.2331 88.8203 36.183 88.618 36.1079Z" fill="white"/>
<path d="M96.1801 32.4023V32.9031H95.1685V36.1833H94.5362V32.9031H93.4993V32.4023H96.1801Z" fill="white"/>
<path d="M99.7461 32.4023V34.8312C99.7461 35.1066 99.822 35.332 99.9737 35.4822C100.125 35.6324 100.328 35.7076 100.606 35.7076C100.884 35.7076 101.087 35.6324 101.238 35.4822C101.39 35.332 101.466 35.1316 101.466 34.8312V32.4023H102.098V34.8061C102.098 35.1066 102.022 35.3821 101.896 35.5824C101.769 35.8077 101.567 35.958 101.339 36.0581C101.112 36.1583 100.859 36.2084 100.581 36.2084C100.303 36.2084 100.05 36.1583 99.822 36.0581C99.5944 35.958 99.4173 35.7827 99.2909 35.5824C99.1644 35.357 99.0886 35.1066 99.0886 34.8061V32.4023H99.7461Z" fill="white"/>
<path d="M107.56 32.6272C107.864 32.7775 108.117 33.0028 108.269 33.3033C108.446 33.6038 108.521 33.9293 108.521 34.3049C108.521 34.6805 108.446 35.0311 108.269 35.3065C108.092 35.582 107.864 35.8073 107.56 35.9576C107.257 36.1078 106.903 36.183 106.498 36.183H105.259V32.3768H106.498C106.903 32.4019 107.257 32.477 107.56 32.6272ZM107.51 35.3316C107.737 35.0812 107.864 34.7557 107.864 34.3049C107.864 33.8542 107.737 33.5287 107.51 33.2783C107.282 33.0279 106.928 32.9027 106.473 32.9027H105.841V35.6821H106.473C106.928 35.6821 107.282 35.5569 107.51 35.3316Z" fill="white"/>
<path d="M114.313 32.4023L113.049 34.8312V36.2084H112.416V34.8312L111.152 32.4023H111.86L112.745 34.2552L113.63 32.4023H114.313Z" fill="white"/>
<path d="M123.418 34.0796C123.317 34.2549 123.19 34.3801 122.988 34.5053C122.785 34.6054 122.533 34.6555 122.204 34.6555H121.521V36.183H120.889V32.3768H122.204C122.507 32.3768 122.735 32.4269 122.962 32.5271C123.19 32.6272 123.317 32.7524 123.418 32.9277C123.519 33.103 123.569 33.2783 123.569 33.5037C123.544 33.729 123.494 33.9043 123.418 34.0796ZM122.71 33.9794C122.836 33.8793 122.887 33.729 122.887 33.5287C122.887 33.103 122.659 32.9027 122.178 32.9027H121.496V34.1297H122.178C122.431 34.1547 122.608 34.1046 122.71 33.9794Z" fill="white"/>
<path d="M127.211 35.9828C126.908 35.8075 126.68 35.5822 126.503 35.2817C126.326 34.9812 126.25 34.6557 126.25 34.2801C126.25 33.9045 126.326 33.5789 126.503 33.2785C126.68 32.978 126.908 32.7526 127.211 32.5773C127.515 32.4021 127.843 32.3269 128.197 32.3269C128.552 32.3269 128.88 32.4021 129.184 32.5773C129.487 32.7526 129.715 32.978 129.892 33.2785C130.069 33.5789 130.145 33.9045 130.145 34.2801C130.145 34.6557 130.069 34.9812 129.892 35.2817C129.715 35.5822 129.487 35.8075 129.184 35.9828C128.88 36.1581 128.552 36.2332 128.197 36.2332C127.843 36.2332 127.515 36.1581 127.211 35.9828ZM128.88 35.5321C129.083 35.4069 129.234 35.2566 129.336 35.0313C129.437 34.8059 129.513 34.5805 129.513 34.2801C129.513 33.9796 129.462 33.7542 129.336 33.5539C129.209 33.3536 129.057 33.1783 128.88 33.0781C128.678 32.9529 128.45 32.9029 128.197 32.9029C127.945 32.9029 127.717 32.9529 127.515 33.0781C127.312 33.2033 127.161 33.3536 127.059 33.5539C126.958 33.7542 126.882 34.0046 126.882 34.2801C126.882 34.5555 126.933 34.8059 127.059 35.0313C127.186 35.2566 127.338 35.4069 127.515 35.5321C127.692 35.6573 127.945 35.7074 128.197 35.7074C128.45 35.7074 128.678 35.6322 128.88 35.5321Z" fill="white"/>
<path d="M135.076 36.2084L134.191 34.6809H133.711V36.2084H133.079V32.4023H134.394C134.697 32.4023 134.925 32.4523 135.152 32.5525C135.355 32.6527 135.506 32.8029 135.608 32.9532C135.709 33.1284 135.759 33.3037 135.759 33.5291C135.759 33.7795 135.683 34.0048 135.532 34.2052C135.38 34.4055 135.152 34.5557 134.874 34.6058L135.835 36.1833H135.076V36.2084ZM133.736 34.1801H134.419C134.647 34.1801 134.824 34.13 134.95 34.0048C135.076 33.8796 135.127 33.7294 135.127 33.5291C135.127 33.3288 135.076 33.1785 134.95 33.0784C134.824 32.9782 134.647 32.9031 134.419 32.9031H133.736V34.1801Z" fill="white"/>
<path d="M141.374 32.4023V32.9031H140.362V36.1833H139.73V32.9031H138.693V32.4023H141.374Z" fill="white"/>
<path d="M146.634 35.4321H145.041L144.763 36.2084H144.105L145.471 32.4023H146.205L147.57 36.2084H146.913L146.634 35.4321ZM146.457 34.9063L145.825 33.1535L145.193 34.9063H146.457Z" fill="white"/>
<path d="M151.111 35.6821H152.4V36.183H150.478V32.3768H151.111V35.6821Z" fill="white"/>
</g>
<defs>
<clipPath id="clip0_0_1990">
<rect width="152.4" height="41.8171" fill="white"/>
</clipPath>
</defs>
</svg>
