<svg width="184" height="51" viewBox="0 0 184 51" fill="none" xmlns="http://www.w3.org/2000/svg">
<path d="M40.3055 42.8392C35.939 43.5648 31.023 44.6834 25.7405 46.3764C21.8016 47.6461 18.2291 49.0368 15.0535 50.4577C10.0458 38.909 5.00765 27.33 0 15.751L10.3817 3.23486L12.2443 5.56275L5.83208 11.7301L20.2749 1.54185L21.0688 3.77904L9.1298 11.7301L31.7253 0L32.8245 2.84184L13.252 12.5766L40.3971 1.78371L40.1528 6.65111L6.07636 17.8371L15.2062 44.7136C18.2291 44.1089 21.5573 43.595 25.0993 43.2322C30.7177 42.6578 35.8169 42.6276 40.3055 42.8392Z" fill="#735DFF"/>
<path d="M22.1683 34.4345C21.1607 34.0415 20.3668 33.4369 19.7867 32.6508C19.2065 31.8648 18.8706 30.8973 18.8401 29.809H23.2981C23.3592 30.4439 23.5729 30.9276 23.9699 31.2601C24.3363 31.5927 24.8248 31.7438 25.4355 31.7438C26.0462 31.7438 26.5348 31.5927 26.9012 31.3206C27.2676 31.0485 27.4508 30.6555 27.4508 30.1415C27.4508 29.7183 27.2981 29.3857 27.0233 29.1136C26.7485 28.8415 26.3821 28.5997 25.9851 28.4485C25.5577 28.2671 24.9775 28.0555 24.2142 27.8439C23.1149 27.5113 22.1989 27.1788 21.4966 26.816C20.7943 26.4834 20.1836 25.9695 19.6951 25.3044C19.176 24.6393 18.9317 23.7927 18.9317 22.7044C18.9317 21.1323 19.5118 19.8928 20.6722 18.9858C21.8325 18.0788 23.3287 17.6556 25.1913 17.6556C27.0844 17.6556 28.6111 18.1091 29.7714 18.9858C30.9317 19.8928 31.5424 21.1323 31.634 22.7346H27.0539C27.0233 22.1904 26.8096 21.7672 26.4432 21.4346C26.0768 21.1323 25.5882 20.9509 25.008 20.9509C24.489 20.9509 24.092 21.0718 23.7867 21.3439C23.4813 21.616 23.3287 21.9788 23.3287 22.4928C23.3287 23.0369 23.6035 23.4602 24.1225 23.7625C24.6416 24.0648 25.4661 24.3974 26.5653 24.7602C27.6645 25.123 28.5806 25.4858 29.2523 25.8183C29.9546 26.1509 30.5348 26.6346 31.0539 27.2997C31.573 27.9346 31.8172 28.7811 31.8172 29.7787C31.8172 30.7462 31.573 31.6229 31.0844 32.409C30.5958 33.195 29.863 33.8299 28.9165 34.2834C27.9699 34.7368 26.8706 34.9787 25.5577 34.9787C24.3058 35.0392 23.176 34.8275 22.1683 34.4345Z" fill="black"/>
<path d="M55.8168 22.7346C56.8244 23.7625 57.313 25.1532 57.313 26.9671V34.8577H53.1603V27.5415C53.1603 26.6648 52.916 25.9997 52.458 25.5159C52 25.0322 51.3588 24.7904 50.5343 24.7904C49.7099 24.7904 49.0687 25.0322 48.6107 25.5159C48.1527 25.9997 47.9084 26.6648 47.9084 27.5415V34.8577H43.7557V27.5415C43.7557 26.6648 43.5114 25.9997 43.0534 25.5159C42.5954 25.0322 41.9542 24.7904 41.1297 24.7904C40.3053 24.7904 39.6641 25.0322 39.2061 25.5159C38.748 25.9997 38.5038 26.6648 38.5038 27.5415V34.8577H34.3206V21.3741H38.5038V23.0671C38.9313 22.4927 39.4809 22.0695 40.1526 21.7369C40.8244 21.4043 41.6183 21.2532 42.4733 21.2532C43.5114 21.2532 44.4275 21.4648 45.2214 21.9183C46.0153 22.3415 46.6565 22.9764 47.1145 23.7927C47.5725 23.0369 48.2443 22.4322 49.0382 21.9788C49.8626 21.5253 50.7481 21.2834 51.6947 21.2834C53.4657 21.223 54.8092 21.7369 55.8168 22.7346Z" fill="black"/>
<path d="M60.2143 24.4279C60.7334 23.3698 61.4662 22.5837 62.3823 22.0093C63.2983 21.4349 64.3059 21.1628 65.4357 21.1628C66.3823 21.1628 67.2372 21.3442 67.9701 21.7372C68.7029 22.1302 69.2525 22.6442 69.6495 23.2488V21.3442H73.8327V34.8278H69.6189V32.9534C69.222 33.5883 68.6418 34.1022 67.909 34.465C67.1762 34.858 66.3517 35.0394 65.3746 35.0394C64.2754 35.0394 63.2678 34.7673 62.3517 34.1929C61.4357 33.6185 60.7334 32.8022 60.1838 31.7441C59.6647 30.686 59.3899 29.4767 59.3899 28.086C59.4204 26.6953 59.6647 25.486 60.2143 24.4279ZM68.764 25.6674C68.1838 25.0628 67.4815 24.7604 66.6571 24.7604C65.8327 24.7604 65.1304 25.0628 64.5502 25.6372C63.9701 26.2116 63.6953 27.0279 63.6953 28.0558C63.6953 29.0837 63.9701 29.8999 64.5502 30.5046C65.1304 31.1092 65.8327 31.4115 66.6571 31.4115C67.4815 31.4115 68.1838 31.1092 68.764 30.5046C69.3441 29.8999 69.6189 29.0837 69.6189 28.0558C69.6189 27.0883 69.3136 26.2721 68.764 25.6674Z" fill="black"/>
<path d="M82.8403 21.8579C83.5731 21.4347 84.3975 21.2231 85.283 21.2231V25.6067H84.1227C83.0845 25.6067 82.2906 25.8184 81.7715 26.2719C81.2525 26.7253 80.9777 27.4811 80.9777 28.5997V34.8578H76.7944V21.3742H80.9777V23.6114C81.4967 22.8556 82.1074 22.2812 82.8403 21.8579Z" fill="black"/>
<path d="M94.871 31.351V34.858H92.7336C91.2068 34.858 90.0465 34.4952 89.1916 33.7696C88.3366 33.0441 87.9091 31.8348 87.9091 30.172V24.7906H86.2603V21.3744H87.9091V18.0791H92.0923V21.3744H94.8404V24.7906H92.0923V30.2022C92.0923 30.5952 92.1839 30.8976 92.3977 31.079C92.5809 31.2604 92.9168 31.351 93.3748 31.351H94.871Z" fill="black"/>
<path d="M105.222 34.4345C104.214 34.0415 103.421 33.4369 102.84 32.6508C102.26 31.8648 101.924 30.8973 101.894 29.809H106.352C106.413 30.4439 106.627 30.9276 107.024 31.2601C107.39 31.5927 107.879 31.7438 108.489 31.7438C109.1 31.7438 109.588 31.5927 109.955 31.3206C110.321 31.0485 110.505 30.6555 110.505 30.1415C110.505 29.7183 110.352 29.3857 110.077 29.1136C109.802 28.8415 109.436 28.5997 109.039 28.4485C108.611 28.2671 108.031 28.0555 107.268 27.8439C106.169 27.5113 105.253 27.1788 104.55 26.816C103.848 26.4834 103.237 25.9695 102.749 25.3044C102.23 24.6393 101.985 23.7927 101.985 22.7044C101.985 21.1323 102.566 19.8928 103.726 18.9858C104.886 18.0788 106.382 17.6556 108.245 17.6556C110.138 17.6556 111.665 18.1091 112.825 18.9858C113.985 19.8928 114.596 21.1323 114.688 22.7346H110.169C110.138 22.1904 109.924 21.7672 109.558 21.4346C109.192 21.1323 108.703 20.9509 108.123 20.9509C107.604 20.9509 107.207 21.0718 106.901 21.3439C106.596 21.616 106.443 21.9788 106.443 22.4928C106.443 23.0369 106.718 23.4602 107.237 23.7625C107.756 24.0648 108.581 24.3974 109.68 24.7602C110.779 25.123 111.695 25.4858 112.367 25.8183C113.069 26.1509 113.65 26.6346 114.169 27.2997C114.688 27.9346 114.932 28.7811 114.932 29.7787C114.932 30.7462 114.688 31.6229 114.199 32.409C113.711 33.195 112.978 33.8299 112.031 34.2834C111.085 34.7368 109.985 34.9787 108.672 34.9787C107.329 35.0392 106.199 34.8275 105.222 34.4345Z" fill="black"/>
<path d="M117.436 24.4279C118.016 23.3698 118.81 22.5837 119.848 22.0093C120.886 21.4349 122.077 21.1628 123.39 21.1628C125.1 21.1628 126.535 21.6163 127.665 22.493C128.825 23.3698 129.558 24.6395 129.924 26.2418H125.497C125.131 25.2139 124.398 24.7 123.329 24.7C122.566 24.7 121.955 25.0023 121.497 25.5767C121.039 26.1511 120.825 26.9976 120.825 28.1162C120.825 29.2046 121.039 30.0511 121.497 30.6557C121.955 31.2302 122.566 31.5325 123.329 31.5325C124.398 31.5325 125.131 31.0185 125.497 29.9906H129.955C129.589 31.5627 128.825 32.8022 127.695 33.7092C126.535 34.6162 125.1 35.0697 123.421 35.0697C122.077 35.0697 120.886 34.7976 119.879 34.2232C118.84 33.6487 118.047 32.8627 117.466 31.8046C116.886 30.7464 116.611 29.5371 116.611 28.1162C116.581 26.6953 116.856 25.486 117.436 24.4279Z" fill="black"/>
<path d="M144.306 22.765C145.253 23.7929 145.711 25.1836 145.711 26.9975V34.8882H141.558V27.5417C141.558 26.6347 141.314 25.9394 140.856 25.4254C140.398 24.9115 139.756 24.6696 138.962 24.6696C138.169 24.6696 137.527 24.9115 137.069 25.4254C136.611 25.9394 136.367 26.6347 136.367 27.5417V34.8579H132.184V16.9604H136.367V23.1883C136.795 22.5836 137.375 22.1301 138.108 21.7673C138.84 21.4045 139.665 21.2232 140.581 21.2232C142.108 21.2232 143.359 21.7371 144.306 22.765Z" fill="black"/>
<path d="M151.237 34.1929C150.169 33.6185 149.344 32.8325 148.734 31.7743C148.123 30.7162 147.818 29.5069 147.818 28.086C147.818 26.6953 148.123 25.486 148.734 24.4279C149.344 23.3698 150.199 22.5535 151.268 22.0093C152.337 21.4349 153.558 21.1628 154.871 21.1628C156.215 21.1628 157.405 21.4349 158.474 22.0093C159.543 22.5837 160.398 23.3698 161.009 24.4279C161.619 25.486 161.925 26.6953 161.925 28.086C161.925 29.4767 161.619 30.686 160.978 31.7441C160.337 32.8022 159.482 33.6185 158.413 34.1627C157.344 34.7371 156.123 35.0092 154.779 35.0092C153.497 35.0394 152.306 34.7673 151.237 34.1929ZM156.886 30.5953C157.436 30.0209 157.741 29.1744 157.741 28.1162C157.741 27.0279 157.467 26.2116 156.917 25.6372C156.367 25.0628 155.696 24.7604 154.902 24.7604C154.077 24.7604 153.405 25.0325 152.886 25.6069C152.337 26.1814 152.092 27.0279 152.092 28.1162C152.092 29.2046 152.367 30.0209 152.886 30.5953C153.405 31.1697 154.077 31.472 154.871 31.472C155.634 31.472 156.306 31.1697 156.886 30.5953Z" fill="black"/>
<path d="M166.81 34.1929C165.742 33.6185 164.917 32.8325 164.306 31.7743C163.696 30.7162 163.39 29.5069 163.39 28.086C163.39 26.6953 163.696 25.486 164.306 24.4279C164.917 23.3698 165.772 22.5535 166.841 22.0093C167.909 21.4349 169.131 21.1628 170.444 21.1628C171.787 21.1628 172.978 21.4349 174.047 22.0093C175.116 22.5837 175.971 23.3698 176.581 24.4279C177.192 25.486 177.497 26.6953 177.497 28.086C177.497 29.4767 177.192 30.686 176.551 31.7441C175.91 32.8022 175.055 33.6185 173.986 34.1627C172.917 34.7371 171.696 35.0092 170.352 35.0092C169.07 35.0394 167.879 34.7673 166.81 34.1929ZM172.429 30.5953C172.978 30.0209 173.284 29.1744 173.284 28.1162C173.284 27.0279 173.009 26.2116 172.459 25.6372C171.909 25.0628 171.238 24.7604 170.444 24.7604C169.619 24.7604 168.948 25.0325 168.429 25.6069C167.879 26.1814 167.635 27.0279 167.635 28.1162C167.635 29.2046 167.909 30.0209 168.429 30.5953C168.948 31.1697 169.619 31.472 170.413 31.472C171.207 31.472 171.879 31.1697 172.429 30.5953Z" fill="black"/>
<path d="M183.94 16.9604V34.8579H179.757V16.9604H183.94Z" fill="black"/>
<path d="M46.9616 43.5953C46.7173 43.4743 46.5036 43.3232 46.3815 43.1418C46.2288 42.9302 46.1677 42.7185 46.1677 42.4464H46.9922C47.0227 42.6581 47.0838 42.8092 47.2364 42.9302C47.3891 43.0511 47.5723 43.1115 47.8166 43.1115C48.0914 43.1115 48.2746 43.0511 48.4273 42.9302C48.5799 42.8092 48.641 42.6581 48.641 42.4464C48.641 42.2953 48.6105 42.1743 48.5189 42.0836C48.4273 41.993 48.3051 41.9023 48.183 41.872C48.0609 41.8116 47.8471 41.7511 47.6334 41.6906C47.328 41.5999 47.0838 41.5395 46.9006 41.4488C46.7173 41.3581 46.5647 41.2371 46.412 41.0558C46.2593 40.8744 46.1983 40.6627 46.1983 40.3604C46.1983 40.0883 46.2593 39.8767 46.412 39.6651C46.5341 39.4534 46.7173 39.3023 46.9616 39.2116C47.2059 39.1209 47.4807 39.0604 47.7861 39.0604C48.2441 39.0604 48.6105 39.1813 48.8853 39.393C49.1601 39.6046 49.3433 39.9069 49.3738 40.2999H48.5494C48.5494 40.1185 48.4578 39.9976 48.3051 39.8767C48.1525 39.7558 47.9693 39.6953 47.725 39.6953C47.5112 39.6953 47.328 39.7558 47.2059 39.8465C47.0532 39.9674 46.9922 40.1185 46.9922 40.3302C46.9922 40.4813 47.0227 40.572 47.1143 40.6627C47.2059 40.7534 47.2975 40.8139 47.4502 40.8744C47.6028 40.9348 47.7555 40.9953 47.9998 41.0558C48.3051 41.1464 48.5494 41.2371 48.7632 41.2976C48.9464 41.3883 49.1296 41.5092 49.2517 41.6906C49.3738 41.872 49.4654 42.0836 49.4654 42.386C49.4654 42.6278 49.4044 42.8395 49.2822 43.0511C49.1601 43.2627 48.9769 43.4139 48.7326 43.5348C48.4883 43.6557 48.2135 43.7162 47.8777 43.7162C47.4807 43.7464 47.2059 43.686 46.9616 43.5953Z" fill="black"/>
<path d="M56.0611 39.1212V39.7259H54.8397V43.6863H54.0764V39.7259H52.8245V39.1212H56.0611Z" fill="black"/>
<path d="M60.3664 39.1212V42.0538C60.3664 42.3863 60.458 42.6584 60.6412 42.8398C60.8244 43.0212 61.0687 43.1119 61.4046 43.1119C61.7405 43.1119 61.9847 43.0212 62.1679 42.8398C62.3511 42.6584 62.4427 42.4166 62.4427 42.0538V39.1212H63.2061V42.0235C63.2061 42.3863 63.1145 42.7189 62.9618 42.9607C62.8092 43.2328 62.5649 43.4142 62.2901 43.5351C62.0153 43.6561 61.7099 43.7165 61.374 43.7165C61.0382 43.7165 60.7328 43.6561 60.458 43.5351C60.1832 43.4142 59.9695 43.2026 59.8168 42.9607C59.6641 42.6886 59.5725 42.3863 59.5725 42.0235V39.1212H60.3664Z" fill="black"/>
<path d="M69.8319 39.3929C70.1983 39.5743 70.5036 39.8464 70.6868 40.2091C70.9006 40.5719 70.9922 40.965 70.9922 41.4184C70.9922 41.8719 70.9006 42.2952 70.6868 42.6277C70.4731 42.9603 70.1983 43.2324 69.8319 43.4138C69.4654 43.5952 69.038 43.6859 68.5494 43.6859H67.0532V39.0905H68.5494C69.0074 39.1208 69.4654 39.2115 69.8319 39.3929ZM69.7708 42.658C70.0456 42.3556 70.1983 41.9626 70.1983 41.4184C70.1983 40.8743 70.0456 40.4812 69.7708 40.1789C69.496 39.8766 69.0685 39.7254 68.5189 39.7254H67.786V43.0812H68.5494C69.0685 43.0812 69.496 42.9301 69.7708 42.658Z" fill="black"/>
<path d="M75.2978 39.7255V41.0558H76.8856V41.6604H75.2978V43.0511H77.0993V43.6557H74.5344V39.0604H77.0993V39.6651H75.2978V39.7255Z" fill="black"/>
<path d="M84.6108 43.7165H83.8474L81.5573 40.3003V43.7165H80.7939V39.1212H81.5573L83.8474 42.5375V39.1212H84.6108V43.7165Z" fill="black"/>
<path d="M91.3895 39.1212V39.7259H90.1681V43.6863H89.4047V39.7259H88.1528V39.1212H91.3895Z" fill="black"/>
<path d="M95.6335 43.5953C95.3892 43.4743 95.1755 43.3232 95.0533 43.1418C94.9007 42.9302 94.8396 42.7185 94.8396 42.4464H95.664C95.6946 42.6581 95.7556 42.8092 95.9083 42.9302C96.061 43.0511 96.2442 43.1115 96.4885 43.1115C96.7633 43.1115 96.9465 43.0511 97.0991 42.9302C97.2518 42.8092 97.3129 42.6581 97.3129 42.4464C97.3129 42.2953 97.2823 42.1743 97.1907 42.0836C97.0991 41.993 96.977 41.9023 96.8549 41.872C96.7327 41.8116 96.519 41.7511 96.3052 41.6906C95.9999 41.5999 95.7556 41.5395 95.5724 41.4488C95.3892 41.3581 95.2365 41.2371 95.0839 41.0558C94.9312 40.8744 94.8701 40.6627 94.8701 40.3604C94.8701 40.0883 94.9312 39.8767 95.0839 39.6651C95.206 39.4534 95.3892 39.3023 95.6335 39.2116C95.8778 39.1209 96.1526 39.0604 96.4579 39.0604C96.9159 39.0604 97.2824 39.1813 97.5572 39.393C97.832 39.6046 98.0152 39.9069 98.0457 40.2999H97.2213C97.2213 40.1185 97.1297 39.9976 96.977 39.8767C96.8243 39.7558 96.6411 39.6953 96.3969 39.6953C96.1831 39.6953 95.9999 39.7558 95.8778 39.8465C95.7251 39.9674 95.664 40.1185 95.664 40.3302C95.664 40.4813 95.6946 40.572 95.7862 40.6627C95.8778 40.7534 95.9694 40.8139 96.122 40.8744C96.2747 40.9348 96.4274 40.9953 96.6717 41.0558C96.977 41.1464 97.2213 41.2371 97.435 41.2976C97.6182 41.3883 97.8014 41.5092 97.9236 41.6906C98.0457 41.872 98.1373 42.0836 98.1373 42.386C98.1373 42.6278 98.0762 42.8395 97.9541 43.0511C97.832 43.2627 97.6488 43.4139 97.4045 43.5348C97.1602 43.6557 96.8854 43.7162 96.5495 43.7162C96.1831 43.7464 95.9083 43.686 95.6335 43.5953Z" fill="black"/>
<path d="M106.992 43.5953C106.748 43.4743 106.534 43.3232 106.412 43.1418C106.259 42.9302 106.198 42.7185 106.198 42.4464H107.023C107.053 42.6581 107.114 42.8092 107.267 42.9302C107.42 43.0511 107.603 43.1115 107.847 43.1115C108.122 43.1115 108.305 43.0511 108.458 42.9302C108.61 42.8092 108.672 42.6581 108.672 42.4464C108.672 42.2953 108.641 42.1743 108.549 42.0836C108.458 41.993 108.336 41.9023 108.214 41.872C108.091 41.8116 107.878 41.7511 107.664 41.6906C107.359 41.5999 107.114 41.5395 106.931 41.4488C106.748 41.3581 106.595 41.2371 106.443 41.0558C106.32 40.8744 106.229 40.6627 106.229 40.3604C106.229 40.0883 106.29 39.8767 106.443 39.6651C106.565 39.4534 106.748 39.3023 106.992 39.2116C107.236 39.1209 107.511 39.0604 107.817 39.0604C108.275 39.0604 108.641 39.1813 108.916 39.393C109.191 39.6046 109.374 39.9069 109.404 40.2999H108.58C108.58 40.1185 108.488 39.9976 108.336 39.8767C108.183 39.7558 108 39.6953 107.756 39.6953C107.542 39.6953 107.359 39.7558 107.236 39.8465C107.084 39.9674 107.023 40.1185 107.023 40.3302C107.023 40.4813 107.053 40.572 107.145 40.6627C107.236 40.7534 107.328 40.8139 107.481 40.8744C107.603 40.9348 107.786 40.9953 108.03 41.0558C108.336 41.1464 108.58 41.2371 108.794 41.2976C108.977 41.3883 109.16 41.5092 109.282 41.6906C109.404 41.872 109.496 42.0836 109.496 42.386C109.496 42.6278 109.435 42.8395 109.313 43.0511C109.191 43.2627 109.007 43.4139 108.763 43.5348C108.519 43.6557 108.244 43.7162 107.908 43.7162C107.511 43.7464 107.236 43.686 106.992 43.5953Z" fill="black"/>
<path d="M116.122 39.1212V39.7259H114.901V43.6863H114.138V39.7259H112.886V39.1212H116.122Z" fill="black"/>
<path d="M120.428 39.1212V42.0538C120.428 42.3863 120.519 42.6584 120.702 42.8398C120.886 43.0212 121.13 43.1119 121.466 43.1119C121.802 43.1119 122.046 43.0212 122.229 42.8398C122.412 42.6584 122.504 42.4166 122.504 42.0538V39.1212H123.267V42.0235C123.267 42.3863 123.176 42.7189 123.023 42.9607C122.87 43.2328 122.626 43.4142 122.351 43.5351C122.077 43.6561 121.771 43.7165 121.435 43.7165C121.099 43.7165 120.794 43.6561 120.519 43.5351C120.244 43.4142 120.031 43.2026 119.878 42.9607C119.725 42.6886 119.634 42.3863 119.634 42.0235V39.1212H120.428Z" fill="black"/>
<path d="M129.862 39.3929C130.229 39.5743 130.534 39.8464 130.717 40.2091C130.931 40.5719 131.023 40.965 131.023 41.4184C131.023 41.8719 130.931 42.2952 130.717 42.6277C130.504 42.9603 130.229 43.2324 129.862 43.4138C129.496 43.5952 129.068 43.6859 128.58 43.6859H127.084V39.0905H128.58C129.068 39.1208 129.496 39.2115 129.862 39.3929ZM129.801 42.658C130.076 42.3556 130.229 41.9626 130.229 41.4184C130.229 40.8743 130.076 40.4812 129.801 40.1789C129.526 39.8766 129.099 39.7254 128.549 39.7254H127.786V43.0812H128.549C129.099 43.0812 129.526 42.9301 129.801 42.658Z" fill="black"/>
<path d="M138.015 39.1212L136.489 42.0538V43.7165H135.725V42.0538L134.198 39.1212H135.053L136.122 41.3584L137.191 39.1212H138.015Z" fill="black"/>
<path d="M149.008 41.1463C148.886 41.358 148.733 41.5091 148.489 41.6603C148.244 41.7812 147.939 41.8417 147.542 41.8417H146.718V43.6859H145.954V39.0905H147.542C147.909 39.0905 148.183 39.151 148.458 39.2719C148.733 39.3929 148.886 39.544 149.008 39.7557C149.13 39.9673 149.191 40.1789 149.191 40.451C149.16 40.7231 149.099 40.9347 149.008 41.1463ZM148.153 41.0254C148.306 40.9045 148.367 40.7231 148.367 40.4812C148.367 39.9673 148.092 39.7254 147.512 39.7254H146.687V41.2068H147.512C147.817 41.237 148.031 41.1766 148.153 41.0254Z" fill="black"/>
<path d="M153.588 43.4442C153.221 43.2326 152.947 42.9605 152.733 42.5977C152.519 42.2349 152.427 41.8419 152.427 41.3884C152.427 40.9349 152.519 40.5419 152.733 40.1791C152.947 39.8163 153.221 39.5442 153.588 39.3326C153.954 39.121 154.351 39.0303 154.779 39.0303C155.206 39.0303 155.603 39.121 155.969 39.3326C156.336 39.5442 156.611 39.8163 156.824 40.1791C157.038 40.5419 157.13 40.9349 157.13 41.3884C157.13 41.8419 157.038 42.2349 156.824 42.5977C156.611 42.9605 156.336 43.2326 155.969 43.4442C155.603 43.6558 155.206 43.7465 154.779 43.7465C154.351 43.7465 153.954 43.6558 153.588 43.4442ZM155.603 42.9C155.847 42.7489 156.031 42.5675 156.153 42.2954C156.275 42.0233 156.366 41.7512 156.366 41.3884C156.366 41.0256 156.305 40.7535 156.153 40.5117C156 40.2698 155.817 40.0582 155.603 39.9373C155.359 39.7861 155.084 39.7256 154.779 39.7256C154.473 39.7256 154.198 39.7861 153.954 39.9373C153.71 40.0884 153.527 40.2698 153.405 40.5117C153.282 40.7535 153.191 41.0559 153.191 41.3884C153.191 41.721 153.252 42.0233 153.405 42.2954C153.557 42.5675 153.74 42.7489 153.954 42.9C154.168 43.0512 154.473 43.1117 154.779 43.1117C155.084 43.1117 155.359 43.021 155.603 42.9Z" fill="black"/>
<path d="M163.084 43.7165L162.015 41.8724H161.435V43.7165H160.672V39.1212H162.26C162.626 39.1212 162.901 39.1817 163.176 39.3026C163.42 39.4236 163.603 39.6049 163.725 39.7863C163.847 39.998 163.909 40.2096 163.909 40.4817C163.909 40.784 163.817 41.0561 163.634 41.298C163.451 41.5398 163.176 41.7212 162.84 41.7817L164 43.6863H163.084V43.7165ZM161.466 41.2677H162.29C162.565 41.2677 162.779 41.2073 162.931 41.0561C163.084 40.9049 163.145 40.7235 163.145 40.4817C163.145 40.2398 163.084 40.0584 162.931 39.9375C162.779 39.8166 162.565 39.7259 162.29 39.7259H161.466V41.2677Z" fill="black"/>
<path d="M170.687 39.1212V39.7259H169.466V43.6863H168.703V39.7259H167.451V39.1212H170.687Z" fill="black"/>
<path d="M177.039 42.7793H175.115L174.779 43.7165H173.985L175.634 39.1212H176.519L178.168 43.7165H177.374L177.039 42.7793ZM176.825 42.1445L176.061 40.0282L175.298 42.1445H176.825Z" fill="black"/>
<path d="M182.443 43.0812H184V43.6859H181.679V39.0905H182.443V43.0812Z" fill="black"/>
</svg>
